<svg xmlns="http://www.w3.org/2000/svg" id="Layer_1" viewBox="0 0 895 579"><style>.st0{opacity:.5}.st0,.st1{fill:none;stroke:#fff;stroke-width:1.5}</style><g id="Footer-Pattern"><g id="Group-53" opacity=".5" transform="rotate(-150 847.607 281.314)"><path id="Stroke-1" class="st0" d="M.01 153.84c84.06-.16 168.22-2.97 252.22 1.46 66.59 3.51 131.24 18.91 197.52 23.9 43.31 3.26 86.3-1.07 129.57-2.57 25.82-.9 53.24 2.4 77.21-9.15 22.21-10.71 37.8-31.33 50.72-51.61C733.84 74.13 755.19 14.65 809.16 2.41c32.92-7.47 68.56 5.87 98.79 17.68 51.44 20.1 100.45 46.35 149.25 72.01 46.15 24.26 92.02 49.17 139.15 71.52 40.56 19.24 87.55 43.42 133.58 43.67 54.91.3 75.08-40.86 98.09-83.01 12.95-23.72 28.94-45.15 55.82-53.53 38.8-12.1 87.38.87 125.96 8.48 121.63 23.97 243.49 70.69 368.16 74.61"/><path id="Stroke-3" class="st1" d="M.01 173.84c82.89.61 165.77-3.68 248.65-1.38 65.98 1.83 130.59 12.56 196.13 19.13 46.73 4.68 93.44 5.99 140.38 5.65 25.91-.18 53.22 2.18 77.36-8.94 22.53-10.38 39.32-30.01 53.65-49.63 29.6-40.5 54.78-96.83 108.54-109 32.64-7.39 68.13 5.79 98.28 17.16 50.14 18.92 98.08 43.58 145.83 67.75 44.99 22.77 89.72 46.15 135.59 67.11 40.15 18.34 86.98 41.72 132.21 41.96 51.8.27 75.61-36.19 101.34-74.58 14.65-21.85 32.03-40.26 57.99-47.91 38.94-11.48 86 .48 124.87 7.4 118.49 21.1 236.38 60.07 357.14 65.27"/><path id="Stroke-5" class="st0" d="M.01 193.84c80.66-.41 161.05-7.7 241.68-9.2 66.22-1.23 131.13 4.81 196.59 14.39 52.66 7.71 105.12 16.3 158.36 18.73 26.93 1.23 55.02 3.46 80.61-6.64 23.61-9.31 42.67-27.23 59.5-45.69 34.99-38.37 66.28-89.88 121.23-100.45 32.28-6.21 66.24 4.26 96.51 14.67 47.88 16.47 93.83 38.45 139.58 60 42.98 20.26 85.74 41.1 129.52 59.59 39.75 16.78 83.84 36.03 127.76 36.45 48.83.46 76.14-24.38 108.15-56.88 50.46-51.22 117.39-40.5 183.32-31.6 111.41 15.04 222.36 44.25 335.13 46.63"/><path id="Stroke-7" class="st0" d="M.01 213.84c145-2.78 287.2-34.69 431.66-7.69 58.91 11.01 117.01 26.58 176.83 32.14 28.03 2.6 56.95 4.83 84.08-4.19 24.84-8.26 46.15-24.49 65.54-41.62 40.44-35.72 77.87-82.65 134.33-91.62 31.79-5.05 64.4 2.77 94.65 12.03 45.56 13.95 89.45 33.16 133.14 52.01 76.38 32.97 161.33 80.68 246.4 82.52 45.98 1 77.76-14.62 115.21-38.55 55.24-35.29 121.11-27.67 183.75-22.39 104 8.76 207.77 27.83 312.37 27.35"/><path id="Stroke-9" class="st0" d="M.01 233.84c142.37-2.02 284.58-45.49 426.38-16.32 63.19 13 124.82 33.88 189.11 41.35 60.23 7 106.04-5.93 153.93-42.8 43.69-33.64 85.11-77.6 142.19-86.32 73.97-11.29 156.64 31.4 223.02 58.16 74.81 30.16 157.95 73.88 240.33 75 43.8.59 79.71-11.22 119.19-28.24 58.73-25.31 122.17-20.2 184.7-16.96 99.69 5.17 199.21 16.04 299.11 16.12"/><path id="Stroke-11" class="st0" d="M.01 253.84c143.95-2.79 283.94-38.37 427.68-12.66 62.17 11.12 123.5 26.9 186.37 33.96 59.89 6.72 106.74-3.8 157.89-35.64 47.36-29.49 91.93-67.39 147.71-79.7 74.81-16.52 155.26 18.65 222.71 47.17 69.4 29.34 145.72 73.97 222.94 75.49 44.24.87 81.07-15.59 121.33-30.81 63.52-24.02 131.81-13.01 197.97-9.34 97.71 5.42 195.5 10.72 293.37 11.54"/><path id="Stroke-13" class="st0" d="M.01 273.84c80.07-.88 159.6-10.75 239.54-14.34 65.36-2.93 129.26 2.83 194.16 9.89 114.1 12.4 235.7 39.49 345.78-3.42 53.37-20.8 104.14-48.96 160.35-61.83 73.93-16.92 141.94-1.92 209.95 28.76 59.35 26.77 119.83 67.1 186.94 68.49 49.33 1.02 92.46-18.71 138.74-32.07 73.54-21.23 148.17-3.67 222.86.36 93.11 5.02 186.43 4.06 279.64 4.15"/><path id="Stroke-15" class="st1" d="M.01 293.84c82.46.11 164.68-7.57 247.13-7.76 64.89-.15 128.66 10.8 193.42 12.2 56.95 1.23 113.89-1.96 170.85-.16 60.18 1.9 116.96 5.84 176.67-5.14 119.53-21.98 251.07-90.87 368.84-32.53 48.49 24.02 90.93 59.03 147.48 59.76 55.71.72 106.05-21.01 159.5-32.84 84.77-18.76 165.25 6 249.85 10.27 88.05 4.44 176.17-3.01 264.22-3.81"/><path id="Stroke-17" class="st0" d="M.01 313.84c84.11.06 168.15-6.35 252.26-4.12 64.49 1.7 128.1 18.37 192.55 15.34 55.22-2.6 109.36-14.01 164.86-13.39 61.57.69 121.91 9.9 183.72 6.66a917.916 917.916 0 0 0 184.03-28.61c62.19-16.28 126.81-41.45 187.52-6.69 40.88 23.41 68.1 55.74 118.75 56.43 58.82.8 113.05-24.1 169.89-35.12 46.03-8.92 92.86-8.67 139.16-1.7 44.15 6.64 86.39 18.88 131.19 21.23 84.78 4.44 169.32-9 254.02-10.03"/><path id="Stroke-21" class="st0" d="M.01 353.84c81.11-.18 162.2-3.94 243.31-2.32 63.71 1.28 126.42 10.82 189.93 14.13 57.48 2.99 114.81-1.07 172.03-6.45 59.17-5.57 118.23-7.13 177.55-10.47 61.87-3.48 123.85-8.65 184.94-19.32 66.86-11.69 124.89-21.27 190.35 2.87 49.43 18.23 94.57 45.36 148.81 45.9 55.81.56 106.58-23 160.41-33.66 42.82-8.49 86.4-7.94 129.45-1.23 43.18 6.73 84.41 19.17 128.27 21.54 84.43 4.57 168.55-10.18 252.91-11"/><path id="Stroke-23" class="st0" d="M.01 373.84c141.5-.46 281.91-5.84 422.76 10.72 60.35 7.09 119.42 8.58 179.73-.35 57.68-8.54 113.9-17.5 172.16-21.81 60.85-4.5 121.8-7.99 182.5-14.43 33.17-3.52 65.49-8.64 98.99-6.77 33.38 1.86 66.16 8.6 98.38 17.24 58.3 15.63 116.04 38.37 177.22 38.55 52.55.15 99.31-21.24 149.88-31.67 83.82-17.3 160.66 14.93 243.48 19.34 84.41 4.49 168.52-10.01 252.87-10.82"/><path id="Stroke-27" class="st0" d="M.01 413.84c137.62-.17 281.25-14.07 417.18 11.4 62.72 11.75 122.16 19.06 185.42 5.34 56.14-12.18 108.2-29.73 165.73-36 60.32-6.57 121.13-8.75 181.79-9.04 66.87-.31 131.18 11.24 196.53 24.47 67.3 13.62 136.24 29.89 205.35 26.95 50.32-2.14 95.92-20.08 144.8-29.48 77.2-14.84 150.03 12.13 226.69 15.61 84.92 3.85 169.6-8.55 254.46-9.27"/><path id="Stroke-29" class="st1" d="M.01 433.84c75.64-.28 151.21-4.72 226.85-4.43 67.88.26 133.45 8.58 200.42 18.84 62.14 9.52 122.91 13.03 185.11 1.55 56.35-10.4 111.47-23.34 168.44-30.82 60.78-7.99 122.01-13.54 183.33-14.55 65.38-1.08 126.63 14.41 189.39 31.14 63.21 16.85 129.04 35.8 195.06 27.71 49.42-6.06 96.01-24.03 144.85-32.64 74.28-13.09 146.67 7.44 220.87 9.83 87.93 2.83 175.72-6.11 263.62-6.64"/><path id="Stroke-31" class="st0" d="M.01 453.84c75.8-.46 151.41-7.86 227.23-7.38 71.68.46 140.1 16.21 210.88 25.12 120.9 15.23 239.74-9.05 358.92-27.69 61.74-9.66 123.81-18.89 186.35-20.96 63.31-2.09 120.45 18.18 179.36 39.03 57.71 20.43 119.3 42.84 181.21 30 48.35-10.03 94.49-28.78 143.26-37.16 71.4-12.27 143.06 1.58 214.77 3.01 92.02 1.83 183.99-3.65 275.99-3.98"/><path id="Stroke-33" class="st0" d="M.01 473.84c75.99-.65 151.6-11.01 227.61-10.33 75.43.68 146.65 23.69 221.28 31.13 62.87 6.27 124.89.82 187.51-5.24 58.87-5.7 116.92-10.68 175.24-21.07 62.07-11.05 124.27-23.75 187.4-26.64 62.21-2.84 115.59 21.27 171.26 46.07 53.45 23.81 110.82 48.71 169.88 31.21 47.78-14.16 93.29-32.86 142.84-40.72 69-10.94 139.39-3.67 208.86-3.08 95.37.82 190.73-1.22 286.09-1.34"/><path id="Stroke-37" class="st0" d="M.01 513.84c80.28-.76 159.9-14.08 240.21-13.82 77.02.24 147.87 27.51 223.76 36.17 58.92 6.72 117.06.44 175.99-1.3 57.66-1.7 110.56-6.91 166.59-21.61 57.78-15.16 115.1-32.23 175-36.48 63.74-4.53 119.66 23.22 176.02 49.45 54.39 25.31 113.48 53.85 174.82 39.79 52.9-12.13 104.3-29.09 157.9-38.55 70.08-12.36 140.29-10.84 211.16-11.39 92.17-.71 184.33-2.4 276.5-2.25"/><path id="Stroke-39" class="st0" d="M.01 533.84c85.88-1.06 171-15.37 256.91-15.81 33.83-.17 67.92 1.76 101.01 9.16 39.19 8.77 77.29 20.21 117.31 25.08 52.05 6.33 103.25.47 155.31-1.29 54.3-1.83 103.27-6.84 155.5-22.77 54.14-16.51 107.34-33.42 164.25-37.01 66.14-4.17 126.74 26.13 185.58 52.61 57.6 25.93 121.53 58.02 186.58 49.94 59.25-7.36 117.5-25.74 176.01-37.33 73.28-14.5 145.3-15.18 219.65-16.79 86.62-1.87 173.2-5.5 259.85-5.8"/><path id="Stroke-41" class="st0" d="M.01 553.84c90.87-1.29 180.92-16.53 271.81-17.59 35.36-.41 71.15 1.09 105.79 8.68 35.76 7.83 70.51 18.57 107 23.01 45.75 5.57 90.49-.61 136.18-2.8 50.57-2.43 96.26-5.48 144.7-21.46 50.64-16.7 99.63-31.68 153.44-33.66 69.01-2.53 133.4 27.35 195.72 53.57 61.98 26.09 130.08 59.6 199.02 56.99 64.64-2.44 129.3-22.31 192.17-35.88 76.14-16.43 149.71-19.15 227.16-21.89 81.68-2.89 163.22-8.39 244.97-8.98"/><path id="Stroke-43" class="st0" d="M.01 573.84c92.64-1.21 184.48-16.46 277.13-17.79 35.79-.51 72.01.76 107.12 8.2 33.98 7.19 67.13 16.96 101.75 21.06 43.7 5.17 86.59-.61 130.25-2.7 48.16-2.31 92.37-3.16 138.69-18.02 48.29-15.49 94.38-27.62 145.61-27.94 70.96-.44 136.9 24.77 202.49 49.3 65.8 24.61 136.11 56.15 207.57 56.87 67.01.67 133.61-18.77 198.34-33.77 39.73-9.2 79.78-18.13 120.47-21.77 36.23-3.24 72.91-1.84 109.26-3.32 79.8-3.25 159.39-9.69 239.29-10.13"/><path id="Stroke-45" class="st0" d="M.01 593.84c89.26-1 178.03-12.57 267.29-13.68 34.98-.43 70.31.45 104.9 6.02 33.65 5.41 66.67 13.06 100.71 16.07 47.91 4.23 95.57.01 143.49-1.45 49.33-1.51 95.82-3.48 143.98-15.23 49.82-12.16 98.55-23.1 150.14-23.86 68.42-1.01 132.84 21.88 196.57 44.38 64.47 22.76 132.52 51.12 201.91 52.03 66.62.88 133.2-17.97 197.7-32.25 39.63-8.78 79.55-17.27 120.06-20.78 36.33-3.15 73.11-1.87 109.55-3.06 80.57-2.63 161.01-7.67 241.65-8.19"/><path id="Stroke-47" class="st0" d="M.01 613.84c83.63-.51 167.02-8.16 250.64-8.79 68.14-.51 134.4 11.17 202.2 14.62 54.34 2.77 108.61-.37 162.94-1.59 52.45-1.17 103.64-2.62 155.64-10.3 53.73-7.94 107.08-16.02 161.54-16.39 64.23-.43 123.98 16.37 184.72 35.72 61.06 19.45 123.58 41.81 188.41 42.38 66.28.58 132.08-16.3 196.56-29.57 39.44-8.12 79.14-15.94 119.34-19.08 36.59-2.85 73.6-1.46 110.29-2.15 81.9-1.55 163.76-4.7 245.69-4.85"/><path id="Stroke-49" class="st0" d="M.01 633.84c78.2-.09 156.33-3.8 234.53-3.96 66.41-.14 132.44 5.88 198.8 7.18 115.91 2.28 233.77 1.48 349.39-7.03 57.73-4.25 115.4-9.15 173.34-9.02 59.8.13 115.2 11.21 172.63 27.22 57.27 15.96 114.61 32.93 174.59 32.95 66 .02 130.96-14.7 195.47-26.98 77.16-14.7 151.32-18.25 229.62-18.73 83.2-.51 166.39-1.82 249.6-1.62"/><path id="Stroke-51" class="st0" d="M.01 653.84c262.68.01 526.35 6.49 788.89-2.78 59.69-2.11 119.38-4.75 179.11-5.25 57.08-.48 110.82 8.92 166.03 22.82 55.25 13.91 110.58 28.52 167.96 28.75 65.64.26 130.67-14.1 194.95-25.75 158.03-28.64 321-17.81 481.02-17.8"/></g></g></svg>