<svg fill="#14bfb5" enable-background="new 0 0 300 300" viewBox="0 0 300 300"
                                            xmlns="http://www.w3.org/2000/svg">
    <g>
        <path
                                                    d="m164.804 62.461c2.478-.344 4.207-2.632 3.863-5.11s-2.632-4.207-5.11-3.862c-2.478.344-4.207 2.632-3.862 5.11.344 2.477 2.632 4.206 5.109 3.862z">
                                                </path>
        <path
                                                    d="m86 44c2.209 0 4-1.789 4-4v-12c0-2.209-1.791-4-4-4s-4 1.791-4 4v12c0 2.211 1.791 4 4 4z">
                                                </path>
        <path
                                                    d="m86 52c-2.209 0-4 1.789-4 4v12c0 2.211 1.791 4 4 4s4-1.789 4-4v-12c0-2.211-1.791-4-4-4z">
                                                </path>
        <path
                                                    d="m66 52h12c2.209 0 4-1.789 4-4s-1.791-4-4-4h-12c-2.209 0-4 1.789-4 4s1.791 4 4 4z">
                                                </path>
        <path
                                                    d="m94 52h12c2.209 0 4-1.789 4-4s-1.791-4-4-4h-12c-2.209 0-4 1.789-4 4s1.791 4 4 4z">
                                                </path>
        <path
                                                    d="m270 268h-80.983l-5.714-20h64.177c12.418 0 22.52-10.102 22.52-22.52v-126.96c0-12.418-10.102-22.52-22.52-22.52h-186.96c-12.418 0-22.52 10.102-22.52 22.52v126.953c0 10.595 7.471 19.589 17.516 21.894l2.064 20.633h-27.58c-2.209 0-4 1.789-4 4s1.791 4 4 4h240c2.209 0 4-1.789 4-4s-1.791-4-4-4zm-89.302 0h-49.397l5.714-20h37.968zm-82.278 0 .8-8h4.696c5.561 0 10.084-4.523 10.084-10.086v-1.914h14.698l-5.715 20zm5.496-32c1.148 0 2.084.938 2.084 2.086v1.914h-4.78l.4-4zm-3.496 12h5.58v1.914c0 1.148-.936 2.086-2.084 2.086h-3.896zm-39.9-164h186.96c8.006 0 14.52 6.512 14.52 14.52v113.48h-216v-113.48c0-8.008 6.514-14.52 14.52-14.52zm-14.52 141.473v-5.473h216v5.48c0 8.008-6.514 14.52-14.52 14.52h-133.48v-1.914c0-5.562-4.523-10.086-10.084-10.086h-5.916-4-36c-1.131 0-2.207.477-2.965 1.316-.76.836-1.127 1.957-1.016 3.082l.632 6.318c-5.096-2.278-8.651-7.377-8.651-13.243zm19.619 42.527-3.199-32h31.16l-3.199 32z">
                                                </path>
        <path
                                                    d="m155.596 236.233c3.378 0 6.116-2.739 6.116-6.116 0-3.378-2.739-6.116-6.116-6.116-3.378 0-6.117 2.738-6.117 6.116 0 3.377 2.739 6.116 6.117 6.116z">
                                                </path>
        <path
                                                    d="m114 208c11.974 0 22.987-5.238 30.612-14.354 4.193 1.497 8.687 2.354 13.388 2.354 4.116 0 8.135-.622 12-1.84v7.645c0 1.711 1.09 3.234 2.713 3.785.422.145.857.215 1.287.215 1.217 0 2.398-.559 3.17-1.562l12.494-16.243h21.314c1.676 0 3.174-1.047 3.754-2.617.578-1.574.115-3.34-1.16-4.43l-17.034-14.51c.918-3.396 1.462-6.89 1.462-10.443 0-22.055-17.943-40-40-40-2.416 0-4.77.251-7.068.664-6.029-14.465-20.308-24.664-36.932-24.664-22.057 0-40 17.945-40 40 0 6.469 1.578 12.564 4.317 17.976-2.809 5.552-4.317 11.767-4.317 18.024 0 22.055 17.943 40 40 40zm0-8c-17.645 0-32-14.355-32-32 0-3.464.587-6.807 1.649-10.017 7.342 8.563 18.213 14.017 30.351 14.017 2.416 0 4.77-.251 7.068-.664 3.259 7.819 8.947 14.356 16.097 18.744-6.018 6.343-14.275 9.92-23.165 9.92zm73.695-20c-1.242 0-2.414.578-3.17 1.562l-6.525 8.48v-28.882l22.115 18.84zm-29.695-56c17.645 0 32 14.355 32 32 0 1.542-.124 3.071-.341 4.583l-13.065-11.129c-1.188-1.008-2.852-1.238-4.271-.586-1.416.656-2.322 2.074-2.322 3.633v33.139c-3.813 1.546-7.84 2.361-12 2.361-12.969 0-24.138-7.77-29.158-18.887 14.721-5.911 25.157-20.305 25.157-37.114 0-2.603-.269-5.142-.746-7.608 1.553-.233 3.129-.392 4.746-.392zm-32 32c0-13.211 8.049-24.575 19.5-29.454.307 1.776.5 3.591.5 5.454 0 13.211-8.049 24.575-19.5 29.454-.307-1.777-.5-3.591-.5-5.454zm-12-56c12.969 0 24.138 7.769 29.158 18.887-14.722 5.909-25.158 20.304-25.158 37.113 0 2.603.269 5.142.746 7.608-1.553.233-3.129.392-4.746.392-17.645 0-32-14.355-32-32s14.355-32 32-32z">
                                                </path>
    </g>
</svg>