<svg fill="#14bfb5" viewBox="0 -31 480 479" xmlns="http://www.w3.org/2000/svg">
    <path
                                                d="m416 160.5v-120c-.027344-22.082031-17.917969-39.972656-40-40h-336c-22.082031.027344-39.9726562 17.917969-40 40v248c.0273438 22.082031 17.917969 39.972656 40 40h168v-16h-168c-13.253906 0-24-10.746094-24-24v-248c0-13.253906 10.746094-24 24-24h336c13.253906 0 24 10.746094 24 24v120zm0 0" />
    <path d="m40 32.5h16v16h-16zm0 0" />
    <path d="m72 32.5h16v16h-16zm0 0" />
    <path d="m104 32.5h16v16h-16zm0 0" />
    <path d="m40 64.5h336v16h-336zm0 0" />
    <path
                                                d="m336 128.5h-256c-4.417969 0-8 3.582031-8 8v64c0 4.417969 3.582031 8 8 8h152v-16h-144v-48h248zm0 0" />
    <path d="m104 160.5h16v16h-16zm0 0" />
    <path d="m136 160.5h16v16h-16zm0 0" />
    <path d="m168 160.5h16v16h-16zm0 0" />
    <path d="m200 160.5h16v16h-16zm0 0" />
    <path d="m232 160.5h16v16h-16zm0 0" />
    <path d="m176 224.5h48v16h-48zm0 0" />
    <path d="m112 224.5h48v16h-48zm0 0" />
    <path
                                                d="m472 256.5h-21.144531c-1.695313-5.253906-3.808594-10.363281-6.320313-15.28125l14.945313-14.941406c3.121093-3.125 3.121093-8.1875 0-11.3125l-33.945313-33.945313c-3.125-3.121093-8.1875-3.121093-11.3125 0l-14.941406 14.953125c-4.914062-2.523437-10.023438-4.636718-15.28125-6.328125v-21.144531c0-4.417969-3.582031-8-8-8h-48c-4.417969 0-8 3.582031-8 8v21.144531c-5.257812 1.691407-10.367188 3.804688-15.28125 6.328125l-14.941406-14.953125c-3.125-3.121093-8.1875-3.121093-11.3125 0l-33.945313 33.945313c-3.121093 3.125-3.121093 8.1875 0 11.3125l14.945313 14.941406c-2.511719 4.917969-4.625 10.027344-6.320313 15.28125h-21.144531c-4.417969 0-8 3.582031-8 8v48c0 4.417969 3.582031 8 8 8h21.144531c1.691407 5.253906 3.804688 10.363281 6.320313 15.28125l-14.945313 14.941406c-3.121093 3.125-3.121093 8.1875 0 11.3125l33.945313 33.945313c3.125 3.121093 8.1875 3.121093 11.3125 0l14.941406-14.953125c4.914062 2.523437 10.023438 4.636718 15.28125 6.328125v21.144531c0 4.417969 3.582031 8 8 8h48c4.417969 0 8-3.582031 8-8v-21.144531c5.257812-1.691407 10.367188-3.804688 15.28125-6.328125l14.941406 14.953125c3.125 3.121093 8.1875 3.121093 11.3125 0l33.945313-33.945313c3.121093-3.125 3.121093-8.1875 0-11.3125l-14.945313-14.941406c2.511719-4.917969 4.625-10.027344 6.320313-15.28125h21.144531c4.417969 0 8-3.582031 8-8v-48c0-4.417969-3.582031-8-8-8zm-8 48h-19.152344c-3.648437 0-6.832031 2.46875-7.742187 6-2.046875 7.945312-5.195313 15.5625-9.363281 22.632812-1.851563 3.140626-1.34375 7.140626 1.234374 9.71875l13.527344 13.527344-22.625 22.625-13.535156-13.527344c-2.578125-2.578124-6.578125-3.085937-9.71875-1.234374-7.066406 4.167968-14.683594 7.316406-22.625 9.363281-3.53125.910156-6 4.09375-6 7.742187v19.152344h-32v-19.152344c0-3.648437-2.46875-6.832031-6-7.742187-7.941406-2.046875-15.558594-5.195313-22.625-9.363281-3.140625-1.851563-7.140625-1.34375-9.71875 1.234374l-13.535156 13.527344-22.632813-22.625 13.535157-13.535156c2.582031-2.582031 3.089843-6.582031 1.234374-9.726562-4.167968-7.0625-7.320312-14.675782-9.371093-22.617188-.910157-3.53125-4.09375-6-7.742188-6h-19.144531v-32h19.152344c3.648437 0 6.832031-2.46875 7.742187-6 2.046875-7.945312 5.195313-15.5625 9.363281-22.632812 1.851563-3.140626 1.34375-7.140626-1.234374-9.71875l-13.527344-13.527344 22.625-22.625 13.535156 13.527344c2.578125 2.578124 6.578125 3.085937 9.71875 1.234374 7.066406-4.167968 14.683594-7.316406 22.625-9.363281 3.53125-.910156 6-4.09375 6-7.742187v-19.152344h32v19.152344c0 3.648437 2.46875 6.832031 6 7.742187 7.941406 2.046875 15.558594 5.195313 22.625 9.363281 3.140625 1.851563 7.140625 1.34375 9.71875-1.234374l13.535156-13.527344 22.632813 22.625-13.535157 13.535156c-2.582031 2.582031-3.089843 6.582031-1.234374 9.726562 4.167968 7.0625 7.316406 14.671876 9.363281 22.609376.90625 3.535156 4.09375 6.007812 7.742187 6.007812h19.152344zm0 0" />
    <path
                                                d="m352 216.5c-39.765625 0-72 32.234375-72 72s32.234375 72 72 72 72-32.234375 72-72c-.042969-39.746094-32.253906-71.957031-72-72zm0 128c-30.929688 0-56-25.070312-56-56s25.070312-56 56-56 56 25.070312 56 56c-.035156 30.914062-25.085938 55.964844-56 56zm0 0" />
    <path
                                                d="m352 248.5c-22.089844 0-40 17.910156-40 40s17.910156 40 40 40 40-17.910156 40-40c-.027344-22.082031-17.917969-39.972656-40-40zm0 64c-13.253906 0-24-10.746094-24-24s10.746094-24 24-24 24 10.746094 24 24-10.746094 24-24 24zm0 0" />
</svg>