<svg fill="#14bfb5" enable-background="new 0 0 511.998 511.998" viewBox="0 0 511.998 511.998" 
                                            xmlns="http://www.w3.org/2000/svg">
    <g>
        <g>
            <path
                                                        d="m338.727 319.152c4.116 0 7.452-3.336 7.452-7.452s-3.336-7.452-7.452-7.452c-4.115 0-7.452 3.336-7.452 7.452s3.336 7.452 7.452 7.452z" />
            <path
                                                        d="m498.276 62.864h-10.045c-.419-1.042-.864-2.074-1.334-3.096l7.14-7.14c5.35-5.35 5.35-14.055 0-19.405l-15.16-15.16c-5.352-5.351-14.055-5.351-19.406 0l-7.53 7.531c-.895-.387-1.796-.755-2.705-1.104v-10.667c0-7.566-6.155-13.722-13.722-13.722h-21.439c-7.566 0-13.722 6.156-13.722 13.722v10.667c-.909.348-1.811.716-2.704 1.104l-7.531-7.531c-5.352-5.35-14.054-5.349-19.405 0l-15.16 15.16c-5.35 5.35-5.35 14.055 0 19.405l7.14 7.139c-.471 1.021-.916 2.054-1.335 3.096h-10.045c-7.565 0-13.721 6.155-13.721 13.722v21.44c0 7.566 6.155 13.721 13.721 13.721h9.264c.459 1.256.954 2.5 1.485 3.727l-6.509 6.509c-2.591 2.592-4.019 6.038-4.019 9.703s1.428 7.111 4.019 9.703l15.16 15.16c5.352 5.349 14.054 5.35 19.405 0l6.117-6.117c1.354.623 2.728 1.202 4.118 1.735v8.622c0 7.566 6.155 13.722 13.722 13.722h21.439c7.566 0 13.722-6.156 13.722-13.722v-8.622c1.391-.533 2.765-1.112 4.118-1.735l6.117 6.117c5.352 5.351 14.055 5.351 19.406 0l15.16-15.16c5.35-5.35 5.35-14.055 0-19.405l-6.51-6.509c.532-1.228 1.027-2.47 1.485-3.727h9.264c7.566 0 13.722-6.155 13.722-13.721v-21.44c0-7.567-6.155-13.722-13.722-13.722zm-1.278 33.882h-13.469c-3.388 0-6.355 2.271-7.24 5.542-1.049 3.881-2.543 7.643-4.438 11.182-1.563 2.914-1.031 6.507 1.307 8.845l9.369 9.369-13.353 13.353-9.072-9.073c-2.387-2.387-6.072-2.884-9.008-1.218-3.613 2.052-7.463 3.676-11.442 4.828-3.208.928-5.416 3.865-5.416 7.205v12.73h-18.883v-12.73c0-3.339-2.208-6.276-5.415-7.205-3.98-1.152-7.831-2.776-11.443-4.828-2.934-1.666-6.62-1.169-9.008 1.218l-9.071 9.072-13.353-13.352 9.368-9.369c2.337-2.338 2.868-5.93 1.308-8.844-1.897-3.543-3.392-7.306-4.439-11.183-.885-3.271-3.853-5.542-7.24-5.542h-13.468v-18.882h14.057c3.29 0 6.196-2.145 7.167-5.289 1.127-3.655 2.662-7.203 4.562-10.545 1.667-2.935 1.168-6.622-1.218-9.008l-10.096-10.095 13.353-13.352 10.39 10.391c2.338 2.338 5.932 2.869 8.845 1.308 3.271-1.752 6.733-3.163 10.288-4.191 3.207-.928 5.415-3.865 5.415-7.205v-14.777h18.883v14.775c0 3.339 2.208 6.276 5.416 7.205 3.555 1.028 7.016 2.438 10.286 4.19 2.915 1.561 6.507 1.03 8.846-1.308l10.391-10.391 13.353 13.353-10.096 10.095c-2.386 2.386-2.885 6.072-1.218 9.007 1.899 3.344 3.434 6.893 4.561 10.547.971 3.145 3.877 5.289 7.167 5.289h14.058v18.883z" />
            <path
                                                        d="m424.794 60.565c-15.309 0-27.763 12.454-27.763 27.763s12.454 27.763 27.763 27.763 27.764-12.455 27.764-27.763-12.455-27.763-27.764-27.763zm0 40.526c-7.037 0-12.763-5.726-12.763-12.763s5.726-12.763 12.763-12.763c7.038 0 12.764 5.725 12.764 12.763s-5.726 12.763-12.764 12.763z" />
            <path
                                                        d="m376.421 263.238h-15.475c-3.367-10.587-7.787-20.827-13.191-30.564l11.318-11.318c9.348-9.349 9.348-24.561 0-33.911l-34.622-34.621c-9.348-9.349-24.562-9.348-33.911 0l-12.127 12.128c-9.514-4.987-19.48-9.05-29.754-12.127v-17.349c0-13.222-10.757-23.979-23.979-23.979h-48.96c-13.223 0-23.979 10.757-23.979 23.979v17.349c-10.273 3.078-20.24 7.14-29.754 12.127l-12.128-12.128c-9.348-9.349-24.562-9.348-33.911 0l-34.621 34.621c-9.348 9.349-9.348 24.561 0 33.911l11.318 11.318c-5.404 9.737-9.824 19.977-13.191 30.564h-15.475c-13.222 0-23.979 10.757-23.979 23.979v48.96c0 13.222 10.757 23.979 23.979 23.979h13.858c3.16 11.238 7.486 22.117 12.909 32.462l-9.42 9.42c-9.348 9.349-9.348 24.561.001 33.911l4.797 4.796c2.928 2.929 7.677 2.927 10.606 0 2.929-2.929 2.929-7.678-.001-10.607l-4.796-4.795c-3.501-3.501-3.501-9.198 0-12.699l13.39-13.39c2.387-2.387 2.885-6.076 1.216-9.011-7.016-12.338-12.274-25.581-15.629-39.362-.818-3.361-3.828-5.726-7.287-5.726h-19.644c-4.951 0-8.979-4.028-8.979-8.979v-48.96c0-4.951 4.027-8.979 8.979-8.979h21.057c3.361 0 6.312-2.236 7.221-5.472 3.687-13.129 9.134-25.731 16.189-37.458 1.775-2.952 1.313-6.734-1.123-9.17l-15.389-15.387c-3.501-3.501-3.501-9.198 0-12.699l34.62-34.62c3.501-3.501 9.197-3.501 12.698 0l16.098 16.098c2.388 2.388 6.077 2.884 9.011 1.216 11.565-6.577 23.94-11.618 36.781-14.982 3.298-.864 5.599-3.845 5.599-7.255v-23.032c0-4.951 4.028-8.979 8.979-8.979h48.96c4.951 0 8.979 4.028 8.979 8.979v23.032c0 3.41 2.301 6.391 5.599 7.255 12.841 3.365 25.216 8.406 36.781 14.982 2.933 1.668 6.622 1.171 9.011-1.216l16.097-16.098c3.501-3.501 9.197-3.501 12.698 0l34.621 34.62c3.501 3.501 3.501 9.198 0 12.699l-15.389 15.389c-2.436 2.436-2.898 6.218-1.123 9.17 7.056 11.726 12.503 24.329 16.189 37.458.909 3.236 3.859 5.472 7.221 5.472h21.057c4.951 0 8.979 4.028 8.979 8.979v48.96c0 4.951-4.027 8.979-8.979 8.979h-19.645c-3.459 0-6.469 2.365-7.287 5.726-3.356 13.784-8.614 27.027-15.629 39.362-1.669 2.935-1.171 6.624 1.216 9.011l13.39 13.389c3.501 3.501 3.501 9.198 0 12.699l-34.62 34.62c-3.501 3.501-9.196 3.501-12.699 0l-12.681-12.68c-2.434-2.436-6.215-2.899-9.17-1.123-12.494 7.519-25.965 13.2-40.038 16.888-3.298.864-5.599 3.845-5.599 7.255v17.615c0 4.951-4.028 8.979-8.979 8.979h-48.96c-4.951 0-8.979-4.028-8.979-8.979v-17.615c0-3.41-2.3-6.391-5.599-7.255-14.072-3.688-27.544-9.37-40.04-16.888-2.952-1.778-6.734-1.313-9.17 1.123l-12.679 12.68c-3.502 3.501-9.197 3.501-12.699 0l-5.065-5.065c-2.928-2.929-7.677-2.928-10.606 0-2.929 2.929-2.929 7.678.001 10.607l5.065 5.065c9.348 9.348 24.562 9.348 33.911 0l8.608-8.609c10.565 5.864 21.717 10.565 33.272 14.026v11.931c0 13.222 10.757 23.979 23.979 23.979h48.96c13.223 0 23.979-10.757 23.979-23.979v-11.931c11.557-3.461 22.707-8.162 33.271-14.026l8.61 8.609c9.348 9.348 24.562 9.348 33.911 0l34.621-34.621c9.348-9.349 9.348-24.561 0-33.911l-9.42-9.42c5.423-10.344 9.747-21.221 12.908-32.462h13.859c13.222 0 23.979-10.757 23.979-23.979v-48.96c.002-13.223-10.754-23.98-23.976-23.98z" />
            <path
                                                        d="m181.013 209.978c-50.395 9.204-86.972 53.122-86.972 104.428 0 58.536 47.622 106.159 106.158 106.159s106.159-47.623 106.159-106.159c0-51.36-36.622-95.287-87.08-104.448-4.08-.739-7.979 1.964-8.719 6.04s1.964 7.979 6.039 8.719c43.318 7.865 74.76 45.584 74.76 89.689 0 50.265-40.894 91.159-91.159 91.159s-91.158-40.894-91.158-91.159c0-44.058 31.402-81.771 74.667-89.672 4.074-.744 6.774-4.65 6.03-8.726-.744-4.075-4.655-6.773-8.725-6.03z" />
            <path
                                                        d="m200.199 391.217c52.994 1.337 92.175-56.73 71.297-105.401-11.748-29.291-39.733-48.217-71.297-48.217-41.299-.776-77.644 35.409-76.809 76.809.001 42.352 34.457 76.809 76.809 76.809zm-60.465-89.708c2.734-13.001 9.795-25.05 19.895-33.696l12.69 9.704c1.854 1.418 2.553 3.926 1.698 6.099-.001.002-.002.004-.003.007l-6.759 17.237c-.783 1.998-2.748 3.34-4.89 3.34h-23.12c.149-.901.302-1.801.489-2.691zm122.222 15.4c-.701 23.146-15.544 44.974-36.84 54.086l.703-13.814c.36-7.152-3.229-13.893-9.388-17.604l-3.628-2.169c-2.042-1.226-2.735-3.809-1.58-5.884l18.475-33.166c.771-1.388 2.236-2.25 3.822-2.25h25.715c2.108 6.703 2.995 13.783 2.721 20.801zm-9.659-35.802h-18.776c-7.029 0-13.518 3.817-16.93 9.957l-18.471 33.159c-5.119 9.187-2.062 20.627 6.975 26.051 2.183 1.369 6.155 2.932 5.744 6.148l-.969 19.035c-3.188.502-6.423.759-9.671.759-32.467 0-59.148-25.168-61.605-57.016h23.772c8.389 0 15.789-5.049 18.854-12.864l6.756-17.23c3.293-8.372.602-18.036-6.545-23.502l-8.637-6.604c8.458-4.203 17.768-6.4 27.404-6.4 21.479-.002 40.895 10.889 52.099 28.507z" />
            <circle cx="62.653" cy="311.7" r="7.452" />
        </g>
    </g>
</svg>