<svg fill="#14bfb5" enable-background="new 0 0 300 300" viewBox="0 0 300 300"
                                            xmlns="http://www.w3.org/2000/svg">
    <g>
        <path
                                                    d="m248.172 54.504c2.502.005 4.533-2.02 4.538-4.521s-2.02-4.533-4.521-4.537c-2.501-.005-4.533 2.02-4.538 4.521s2.02 4.532 4.521 4.537z">
                                                </path>
        <path
                                                    d="m54 44c2.211 0 4-1.789 4-4v-12c0-2.211-1.789-4-4-4s-4 1.789-4 4v12c0 2.211 1.789 4 4 4z">
                                                </path>
        <path
                                                    d="m54 52c-2.211 0-4 1.789-4 4v12c0 2.211 1.789 4 4 4s4-1.789 4-4v-12c0-2.211-1.789-4-4-4z">
                                                </path>
        <path
                                                    d="m34 52h12c2.211 0 4-1.789 4-4s-1.789-4-4-4h-12c-2.211 0-4 1.789-4 4s1.789 4 4 4z">
                                                </path>
        <path
                                                    d="m62 52h12c2.211 0 4-1.789 4-4s-1.789-4-4-4h-12c-2.211 0-4 1.789-4 4s1.789 4 4 4z">
                                                </path>
        <path
                                                    d="m270 268h-80.982l-5.715-20h64.178c12.418 0 22.52-10.102 22.52-22.52v-126.96c-.001-12.418-10.103-22.52-22.521-22.52h-19.824l-30.828-30.828c-.75-.75-1.766-1.172-2.828-1.172h-100c-6.617 0-12 5.383-12 12v20h-21.48c-12.418 0-22.52 10.102-22.52 22.52v126.953c0 12.422 10.105 22.527 22.527 22.527h68.17l-5.716 20h-92.981c-2.211 0-4 1.789-4 4s1.789 4 4 4h240c2.211 0 4-1.789 4-4s-1.789-4-4-4zm-95.02-20 5.715 20h-49.391l5.716-20zm87.02-149.48v113.48h-32v-128h17.48c8.008 0 14.52 6.512 14.52 14.52zm-64-40.864 18.344 18.344h-18.344zm-104-5.656h96v28c0 2.211 1.789 4 4 4h28v128h-132v-156c0-2.207 1.793-4 4-4zm-33.48 32h21.48v128h-36v-113.48c0-8.008 6.512-14.52 14.52-14.52zm-14.52 141.473v-5.473h216v5.48c0 8.008-6.512 14.52-14.52 14.52h-186.953c-8.011 0-14.527-6.516-14.527-14.527z">
                                                </path>
        <path
                                                    d="m155.596 224c-3.378 0-6.117 2.738-6.117 6.116s2.739 6.117 6.117 6.117 6.116-2.739 6.116-6.117-2.738-6.116-6.116-6.116z">
                                                </path>
        <path
                                                    d="m102 132h16c2.211 0 4-1.789 4-4v-4h16.712c-11.24 5.472-18.806 15.892-20.33 28h-4.382c-2.211 0-4 1.789-4 4v16c0 2.211 1.789 4 4 4h16c2.211 0 4-1.789 4-4v-16c0-2.211-1.789-4-4-4h-3.572c1.567-9.578 8.127-17.644 17.556-21.547 2.935 3.37 7.205 5.547 12.016 5.547 4.752 0 8.979-2.122 11.912-5.421 8.745 3.873 14.973 11.672 17.165 21.421h-3.077c-2.211 0-4 1.789-4 4v16c0 2.211 1.789 4 4 4h16c2.211 0 4-1.789 4-4v-16c0-2.211-1.789-4-4-4h-4.764c-2.248-12.466-9.748-22.629-20.537-28h17.301v4c0 2.211 1.789 4 4 4h16c2.211 0 4-1.789 4-4v-16c0-2.211-1.789-4-4-4h-16c-2.211 0-4 1.789-4 4v4h-18.568c-1.788-6.882-7.997-12-15.432-12s-13.644 5.118-15.432 12h-18.568v-4c0-2.211-1.789-4-4-4h-16c-2.211 0-4 1.789-4 4v16c0 2.211 1.789 4 4 4zm24 36h-8v-8h8zm68 0h-8v-8h8zm4-52h8v8h-8zm-42-4c4.41 0 8 3.59 8 8s-3.59 8-8 8-8-3.59-8-8 3.59-8 8-8zm-50 4h8v8h-8z">
                                                </path>
    </g>
</svg>