<svg fill="#14bfb5" enable-background="new 0 0 300 300" viewBox="0 0 300 300"
                                            xmlns="http://www.w3.org/2000/svg">
    <g>
        <path
                                                    d="m251.757 225.516c-1.562-1.562-4.094-1.562-5.656 0l-2.828 2.828-2.828-2.828c-1.562-1.562-4.094-1.562-5.656 0s-1.562 4.094 0 5.656l2.828 2.828-2.828 2.828c-1.562 1.562-1.562 4.094 0 5.656.781.781 1.805 1.172 2.828 1.172s2.047-.391 2.828-1.172l2.828-2.828 2.828 2.828c.781.781 1.805 1.172 2.828 1.172s2.047-.391 2.828-1.172c1.562-1.562 1.562-4.094 0-5.656l-2.828-2.828 2.828-2.828c1.562-1.563 1.562-4.094 0-5.656z">
                                                </path>
        <circle cx="31.272" cy="190" r="4"></circle>
        <circle cx="219.272" cy="62" r="4"></circle>
        <path
                                                    d="m215.272 186c-6.617 0-12 5.383-12 12s5.383 12 12 12 12-5.383 12-12-5.382-12-12-12zm0 16c-2.205 0-4-1.793-4-4s1.795-4 4-4 4 1.793 4 4-1.794 4-4 4z">
                                                </path>
        <circle cx="121.272" cy="240" r="10"></circle>
        <path
                                                    d="m123.272 94c2.209 0 4-1.789 4-4v-16c0-2.211-1.791-4-4-4s-4 1.789-4 4v16c0 2.211 1.791 4 4 4z">
                                                </path>
        <path
                                                    d="m135.272 98c1.023 0 2.047-.391 2.828-1.172l10-10c1.562-1.562 1.562-4.094 0-5.656s-4.094-1.562-5.656 0l-10 10c-1.562 1.562-1.562 4.094 0 5.656.782.781 1.805 1.172 2.828 1.172z">
                                                </path>
        <path
                                                    d="m108.444 96.828c.781.781 1.805 1.172 2.828 1.172s2.047-.391 2.828-1.172c1.562-1.562 1.562-4.094 0-5.656l-10-10c-1.562-1.562-4.094-1.562-5.656 0s-1.562 4.094 0 5.656z">
                                                </path>
        <path
                                                    d="m274.474 134.402-49.455-24c-.545-.266-1.141-.402-1.746-.402h-32v-55.508c0-9.094-7.398-16.492-16.49-16.492h-103.02c-9.092 0-16.49 7.398-16.49 16.492v55.508h-20.938c-6.1 0-11.062 4.961-11.062 11.062v33.875c0 6.102 4.963 11.062 11.062 11.062h20.938v79.508c0 9.094 7.398 16.492 16.49 16.492h103.02c9.092 0 16.49-7.398 16.49-16.492v-79.507h32c.605 0 1.201-.137 1.746-.402l49.455-24c1.379-.668 2.254-2.066 2.254-3.598s-.875-2.93-2.254-3.598zm-170.759 23.598c-5.201-5.087-8.442-12.169-8.442-20s3.241-14.913 8.442-20h115.558v8h-112c-2.209 0-4 1.789-4 4s1.791 4 4 4h112v8h-80c-2.209 0-4 1.789-4 4s1.791 4 4 4h80v8zm123.557-37.612 16 7.765v19.695l-16 7.765zm-196 34.55v-33.875c0-1.688 1.373-3.062 3.062-3.062h4.938v40h-4.938c-1.688-.001-3.062-1.376-3.062-3.063zm16 3.062v-40h8v40zm127.51 96h-103.019c-4.682 0-8.49-3.809-8.49-8.492v-19.508h120v19.508c-.001 4.683-3.809 8.492-8.491 8.492zm8.49-36h-120v-163.508c0-4.684 3.809-8.492 8.49-8.492h103.02c4.682 0 8.49 3.809 8.49 8.492v55.508h-37.418c-.037-.032-.053-.078-.092-.109-6.352-5.09-14.338-7.891-22.49-7.891-9.151 0-17.49 3.46-23.848 9.105-.046.043-.094.08-.138.125-7.354 6.596-12.014 16.137-12.014 26.77s4.661 20.174 12.014 26.77c.044.046.092.082.138.125 6.358 5.645 14.697 9.105 23.848 9.105 8.222 0 16.229-2.848 22.607-8h37.393zm68-74.034v-11.932l12.293 5.966z">
                                                </path>
    </g>
</svg>